<svg xmlns="http://www.w3.org/2000/svg" width="26" height="26" viewBox="0 0 26 26">
    <path fill="#F0AB04" fill-rule="nonzero" d="M14.614 26h-3.228a2.165 2.165 0 0 1-2.172-2.17v-1.084l-.44-.176-.763.763c-.85.85-2.23.85-3.052 0L2.67 21.046a2.128 2.128 0 0 1-.645-1.524c0-.586.235-1.114.645-1.524l.793-.762-.176-.44H2.172A2.165 2.165 0 0 1 0 14.626v-3.224c0-1.201.968-2.169 2.172-2.169h1.085l.176-.44-.763-.79a2.128 2.128 0 0 1-.645-1.525c0-.586.235-1.114.645-1.524l2.29-2.287c.41-.41.938-.644 1.525-.644s1.115.234 1.526.644l.763.763c.147-.06.294-.118.44-.176V2.169C9.214.967 10.183 0 11.386 0h3.228c1.203 0 2.172.967 2.172 2.17v1.084l.44.176.792-.763c.41-.41.94-.644 1.526-.644.587 0 1.115.234 1.526.644l2.289 2.287c.85.85.85 2.228 0 3.048l-.792.792.176.44h1.085c1.204 0 2.172.967 2.172 2.168v3.225c0 1.202-.968 2.169-2.172 2.169h-1.085l-.176.44.763.762c.85.85.85 2.227 0 3.048l-2.29 2.287c-.85.85-2.23.85-3.051 0l-.763-.763c-.147.06-.294.118-.44.176v1.085c0 1.202-.969 2.169-2.172 2.169zm-2.73-2.667h2.231V22.1c0-.762.499-1.465 1.233-1.7.41-.146.821-.293 1.203-.498.704-.352 1.526-.234 2.083.322l.88.88 1.585-1.583-.88-.88c-.558-.556-.675-1.377-.323-2.08.206-.382.382-.792.499-1.202a1.77 1.77 0 0 1 1.702-1.231h1.233V11.9h-1.204a1.798 1.798 0 0 1-1.702-1.231c-.146-.41-.293-.821-.498-1.231-.353-.704-.235-1.525.322-2.082l.88-.879-1.584-1.583-.88.88c-.558.556-1.38.674-2.084.322a6.13 6.13 0 0 0-1.203-.498 1.769 1.769 0 0 1-1.233-1.7V2.667h-2.23V3.9c0 .762-.499 1.465-1.232 1.7-.411.146-.822.293-1.233.498-.704.352-1.526.234-2.083-.322l-.88-.88L4.9 6.478l.88.88c.558.556.675 1.377.323 2.08a6.116 6.116 0 0 0-.499 1.202 1.77 1.77 0 0 1-1.702 1.231H2.67V14.1h1.233c.763 0 1.467.499 1.702 1.231.147.41.293.821.499 1.231.352.704.235 1.525-.323 2.082l-.88.879 1.584 1.583.88-.88c.558-.556 1.38-.674 2.084-.322a6.13 6.13 0 0 0 1.203.498 1.769 1.769 0 0 1 1.233 1.7v1.232zM13 18.877a5.895 5.895 0 0 1-5.898-5.892A5.895 5.895 0 0 1 13 7.094c3.257 0 5.898 2.667 5.898 5.891A5.895 5.895 0 0 1 13 18.877zm0-9.116a3.217 3.217 0 0 0-3.228 3.224A3.217 3.217 0 0 0 13 16.21a3.217 3.217 0 0 0 3.228-3.225A3.217 3.217 0 0 0 13 9.761z"/>
</svg>
