<svg xmlns="http://www.w3.org/2000/svg" width="23" height="23" viewBox="0 0 23 23">
    <path fill="#F0AB00" fill-rule="nonzero" d="M10.89 22.984a11.571 11.571 0 0 1-6.235-2.23c-.48-.357-.829-.655-1.282-1.105a11.082 11.082 0 0 1-2.225-3.102 11.322 11.322 0 0 1 0-9.935A11.044 11.044 0 0 1 3.373 3.51 11.203 11.203 0 0 1 6.35 1.37c.252-.125.796-.37.826-.37.005 0 .01.71.01 1.579v1.578L7 4.264c-.718.418-1.56 1.142-2.136 1.831-1.073 1.289-1.719 2.782-1.941 4.489-.057.445-.057 1.544 0 1.986.257 1.975 1.102 3.703 2.474 5.069 1.373 1.366 3.115 2.204 5.104 2.457.448.056 1.555.056 2 0a8.982 8.982 0 0 0 1.82-.418 8.577 8.577 0 0 0 5.657-6.501c.113-.588.137-.865.137-1.595s-.024-1.009-.137-1.594a8.538 8.538 0 0 0-2.4-4.489A8.598 8.598 0 0 0 16 4.267l-.185-.107V2.581c0-.868.002-1.578.01-1.578.027 0 .571.245.826.37a11.203 11.203 0 0 1 2.976 2.14c.946.94 1.654 1.928 2.225 3.102a11.322 11.322 0 0 1 0 9.935 11.044 11.044 0 0 1-2.225 3.101 11.03 11.03 0 0 1-2.418 1.843 11.614 11.614 0 0 1-6.319 1.49zM10 6V0h3v12h-3V6z"/>
</svg>
