<svg xmlns="http://www.w3.org/2000/svg" width="26" height="26" viewBox="0 0 26 26">
    <g fill="#F0AB00" fill-rule="nonzero">
        <path d="M17.06 22.761c-1.363.589-2.822.916-4.25.916-2.691 0-5.383-1.047-7.459-3.108-2.075-2.094-3.08-4.777-3.08-7.525 0-2.094.615-4.188 1.848-5.987L5.838 8.79 6.518 3l-5.74.687 1.72 1.734A13 13 0 0 0 0 13.077c0 3.304 1.265 6.609 3.762 9.128A12.718 12.718 0 0 0 12.811 26c1.751 0 3.535-.36 5.189-1.112l-.94-2.127zM26 12.942c0-3.31-1.265-6.619-3.762-9.141A12.709 12.709 0 0 0 13.189 0C11.405 0 9.654.36 8 1.114l.908 2.097c1.362-.59 2.822-.918 4.281-.918 2.692 0 5.384 1.049 7.46 3.113a10.726 10.726 0 0 1 3.08 7.536c0 2.096-.615 4.193-1.848 5.995l-1.719-1.736-.68 5.799 5.74-.688-1.72-1.737A12.935 12.935 0 0 0 26 12.942z"/>
        <circle cx="13" cy="9" r="3"/>
        <path d="M15.667 13h-5.334C8.5 13 7 13.914 7 15v2h12v-2c0-1.114-1.5-2-3.333-2z"/>
    </g>
</svg>
