<?xml version="1.0" encoding="UTF-8"?>
<svg width="21px" height="21px" viewBox="0 0 21 21" version="1.1" xmlns="http://www.w3.org/2000/svg" xmlns:xlink="http://www.w3.org/1999/xlink">
    <!-- Generator: Sketch 54.1 (76490) - https://sketchapp.com -->
    <title>download_icon</title>
    <desc>Created with Sketch.</desc>
    <g id="Symbols" stroke="none" stroke-width="1" fill="none" fill-rule="evenodd">
        <g id="Download-symbol---grey" fill="#4A4A4A">
            <g id="Group-6-Copy">
                <g id="download_icon" transform="translate(-0.000117, 0.000000)">
                    <path d="M10.0010264,14.7973246 C10.2765244,15.0675585 10.7235324,15.0675585 10.9990305,14.7973246 L17.7933167,8.13286307 C18.06905,7.86262918 18.06905,7.42416259 17.7933167,7.1539287 C17.5175833,6.88369481 17.0710459,6.88369481 16.7953125,7.1539287 L11.2058305,12.6366073 L11.2058305,0.692315681 C11.2058305,0.309926653 10.8898665,0 10.5000284,0 C10.1101904,0 9.79422636,0.309926653 9.79422636,0.692315681 L9.79422636,12.6366073 L4.20474438,7.1539287 C3.9292463,6.88369481 3.48223831,6.88369481 3.20674023,7.1539287 C2.93124215,7.42416259 2.93124215,7.86262918 3.20674023,8.13286307 L10.0010264,14.7973246 Z" id="Fill-1"></path>
                    <path d="M0.7,21.000025 L20.3,21.000025 C20.6868667,21.000025 21,20.664275 21,20.250025 L21,16.784275 C21,16.369775 20.6868667,16.034275 20.3,16.034275 C19.9133667,16.034275 19.6,16.369775 19.6,16.784275 L19.6,19.500025 L1.4,19.500025 L1.4,16.784275 C1.4,16.369775 1.08663333,16.034275 0.7,16.034275 C0.3136,16.034275 0,16.369775 0,16.784275 L0,20.250025 C0,20.664275 0.313366667,21.000025 0.7,21.000025" id="Fill-3"></path>
                </g>
            </g>
        </g>
    </g>
</svg>