<svg xmlns="http://www.w3.org/2000/svg" width="93" height="64" viewBox="0 0 93 64">
    <defs>
        <linearGradient id="a" x1="100%" x2="4.791%" y1="54.581%" y2="54.581%">
            <stop offset="0%" stop-color="#4998C5"/>
            <stop offset="100%" stop-color="#71BBBB"/>
        </linearGradient>
        <linearGradient id="b" x1="100%" x2="4.791%" y1="54.581%" y2="54.581%">
            <stop offset="0%" stop-color="#4998C5"/>
            <stop offset="100%" stop-color="#71BBBB"/>
        </linearGradient>
    </defs>
    <g fill="none" fill-rule="evenodd">
        <path fill="url(#a)" d="M74.795 18.122c-2.13-6.478-8.462-11.178-15.943-11.178-1.928 0-3.778.316-5.5.89C49.945 3.104 44.243 0 37.781 0c-8.937 0-16.42 5.933-18.383 13.901-.17-.004-.338-.012-.508-.012C8.458 13.889 0 21.973 0 31.944 0 41.916 8.458 50 18.89 50h57.4C85.517 50 93 42.85 93 34.028s-7.482-15.972-16.71-15.972c-.505 0-1.002.025-1.495.066z"/>
        <path fill="url(#b)" stroke="#FFF" stroke-width=".25" d="M41.5 31l-10.6 2.166V38l10.6-1.603V31zm0 10l-10.6 1.255V47l10.6-.703V41zm-4.24-14.754V22l-3.18.882V27l3.18-.754zM41.5 27l-10.6 2.89V31l10.6-2.76V27zm19.08 30l-5.3-.52v-3.918l3.866.178v-1.137l-3.866-.122v-4.323l3.866-.1V45.92l-3.866.156v-4.324l3.866-.378v-3.409l-3.866.544v-4.323l3.866-.767v-1.136l-3.866.822v-4.324l3.866-1.044v-1.136L55.28 27.7v-3.918L60.58 22v35zm-16.96 4l-13.78-1.393V19.78L43.62 15v46zm-19.08-6l-8.48-.848V29.909L24.54 27v28zm35.386-34.188l-5.176 1.854v-4.04L43.984 13 28.25 18.635v9.688l-3.908-2.042L15 29.627v25.235l9.342 1.107 3.908-.682v5.85L43.984 63l10.766-1.878V57.7l5.176.614L68 56.904V25.032l-8.074-4.22zM41.5 49l-10.6.277V50l10.6-.193V49zm0 4.05L30.9 53v.85l10.6.15v-.95zm0 4.26L30.9 57v.618L41.5 58v-.69zM33.02 25l-2.12.846V27l2.12-.813V25zm-9.54 16l-6.36.85V44l6.36-.59V41zm0 6l-6.36.253V48l6.36-.163V47zm0-12l-6.36 1.284V37l6.36-1.197V35zm0-4l-6.36 2.117V34l6.36-2.01V31zm0 20.192L17.12 51v.72l6.36.28v-.808zM38.32 25l3.18-.852V23l-3.18.886V25zm3.18-6l-10.6 3.109V23l10.6-3.005V19z"/>
    </g>
</svg>
