<?xml version="1.0" encoding="UTF-8"?>
<svg width="62px" height="78px" viewBox="0 0 62 78" version="1.1" xmlns="http://www.w3.org/2000/svg" xmlns:xlink="http://www.w3.org/1999/xlink">
    <!-- Generator: Sketch 55 (78076) - https://sketchapp.com -->
    <title>OCIC_Business_Billing_wht_rgb</title>
    <desc>Created with Sketch.</desc>
    <g id="Microsite" stroke="none" stroke-width="1" fill="none" fill-rule="evenodd">
        <g id="Edge-to-Core" transform="translate(-281.000000, -1420.000000)" fill="#FFFFFF">
            <path d="M294,1478 L331,1478 L331,1475 L294,1475 L294,1478 Z M294,1486 L331,1486 L331,1483 L294,1483 L294,1486 Z M303.253323,1456.38989 L305.807983,1454.00546 C306.200944,1453.63856 306.822991,1453.62328 307.229747,1453.97609 C308.620994,1455.18339 310.318249,1456.45063 312.464063,1456.45063 C315.457669,1456.45063 316.624009,1455.36563 316.624009,1453.68201 C316.624009,1451.54943 313.591107,1450.91339 310.558623,1449.82799 C307.52614,1448.74339 304.493238,1447.1346 304.493238,1443.09351 C304.493238,1439.02466 306.98561,1436.68167 310.491736,1435.9346 L310.491736,1432.00575 C310.491736,1431.45017 310.959527,1431 311.536844,1431 L314.463145,1431 C315.040462,1431 315.508252,1431.45017 315.508252,1432.00575 L315.508252,1435.81149 C317.608082,1436.14098 319.461266,1436.89891 321.326574,1438.08649 C321.837841,1438.41236 321.943187,1439.09586 321.558588,1439.55569 L319.512268,1442.00006 C319.161948,1442.41805 318.536137,1442.49207 318.081725,1442.18029 C316.672084,1441.21276 315.140374,1440.47454 313.280083,1440.47454 C311.919353,1440.47454 310.519745,1441.26023 310.519745,1442.75678 C310.519745,1444.36557 313.552229,1444.88937 316.624009,1446.0496 C319.773126,1447.20943 323,1449.0423 323,1453.34489 C323,1457.84822 319.483423,1460.30707 315.508252,1461.06339 L315.508252,1464.99425 C315.508252,1465.54983 315.040462,1466 314.463145,1466 L311.536844,1466 C310.959527,1466 310.491736,1465.54983 310.491736,1464.99425 L310.491736,1461.14707 C307.712169,1460.71741 305.458081,1459.49121 303.274643,1457.56701 C302.918052,1457.25282 302.906347,1456.71374 303.253323,1456.38989 Z M293.4,1420 L281,1432.1875 L281,1498 L343,1498 L343,1420 L293.4,1420 L293.4,1420 Z" id="OCIC_Business_Billing_wht_rgb"></path>
        </g>
    </g>
</svg>