<?xml version="1.0" encoding="UTF-8"?>
<svg width="123px" height="78px" viewBox="0 0 123 78" version="1.1" xmlns="http://www.w3.org/2000/svg" xmlns:xlink="http://www.w3.org/1999/xlink">
    <!-- Generator: Sketch 55 (78076) - https://sketchapp.com -->
    <title>OCIC_Personas_Collaboration-Formal_wht_rgb</title>
    <desc>Created with Sketch.</desc>
    <g id="Microsite" stroke="none" stroke-width="1" fill="none" fill-rule="evenodd">
        <g id="Edge-to-Core" transform="translate(-579.000000, -1412.000000)" fill="#FFFFFF">
            <path d="M589.063003,1442 L587.955437,1445.98792 L587.956078,1445.98855 C584.711667,1449.66022 579.655749,1454.78089 579.123783,1460.92028 C578.577059,1467.22536 579.914352,1475.79971 581.700832,1490 L607.183197,1479.05494 L607.847994,1472.26035 C608.048844,1469.38816 608.052053,1467.00108 607.849277,1464.85717 C606.944487,1454.60953 601.807073,1447.71288 589.063003,1442 Z M701.876217,1459.83334 C701.305748,1453.00242 695.531762,1447.38775 692.369482,1443.53898 L691.867033,1440 C691.867033,1440 685.102909,1442.18744 679.776186,1446.10875 L676.764062,1451.86328 C673.698036,1458.35762 672.557099,1462.77433 673.151952,1471.59728 L673.81675,1478.64584 L699.299163,1490 C701.085646,1475.26894 702.422942,1466.37409 701.876217,1459.83334 Z M675.231651,1439.71758 C675.800582,1441.60887 677.469582,1442.17142 679.232391,1441.95696 C682.249143,1441.58914 686.51444,1441.50514 688.828633,1438.17056 L692.041778,1436.85774 C692.041778,1436.85774 696,1430.34195 696,1426.29592 C696,1416.89484 687.841946,1412.81699 678.11545,1415.79711 L676.850709,1414 L674.155203,1415.89002 C672.617807,1417.04439 672.000284,1418.14849 672.000284,1419.45495 C672.000284,1420.12314 672.262141,1421.56897 673.637564,1422.3708 C673.476265,1422.82135 673.391229,1423.34381 673.372333,1423.90572 C673.29742,1426.18201 673.877824,1427.00674 673.877824,1427.81684 C673.877824,1428.62758 672.0536,1432.90079 672.0536,1432.90079 C671.958441,1433.16616 671.988136,1433.46271 672.157533,1433.69244 C672.374172,1433.98644 672.822973,1434.31035 673.754994,1434.38735 C673.754994,1434.38735 674.691065,1437.91856 675.231651,1439.71758 Z M634.323565,1440.14725 C633.353854,1438.84372 632.682272,1437.2006 632.217039,1435.50393 C630.956794,1435.23225 629.960498,1434.17232 629.771873,1432.81198 L629.454121,1430.51775 C629.290182,1429.33178 630.095954,1428.26075 631.20745,1428.09422 C631.173903,1426.91216 631.20745,1426.16244 631.20745,1426.16244 C631.246062,1424.93532 631.461272,1420.91634 635.346446,1419.20792 C635.380626,1424.10919 639.241748,1428.07136 644.000422,1428.07136 L645.730964,1428.07136 C646.796254,1428.07136 647.673551,1428.8988 647.793816,1429.9646 C647.689375,1433.47485 646.920316,1439.64569 642.972477,1442 L649.884518,1442 C651.923317,1438.49498 653,1432.15957 653,1428.07136 C653,1418.47321 648.283735,1414.04084 641.483097,1414.04084 L639.921559,1412 C633.561468,1412 626,1416.24103 626,1427.00033 C626,1431.77426 627.882455,1437.98624 634.323565,1440.14725 Z M658.217377,1450.14653 L648.074788,1445.44394 L647.890658,1445.35882 C647.681813,1445.26191 647.48965,1445.14012 647.311699,1445 L652.150978,1455.25639 L649.109746,1455.25639 L643.027282,1471.3704 L645.507474,1447.71993 L645.506856,1447.71993 L645.50562,1447.73041 C644.408256,1448.33084 642.927802,1448.81144 641,1448.81144 C639.072815,1448.81144 637.591744,1448.33019 636.49438,1447.73041 L638.972718,1471.3704 L632.890254,1455.25639 L629.849022,1455.25639 L634.688918,1445 C634.510967,1445.14012 634.318187,1445.26191 634.109342,1445.35882 L633.925212,1445.44394 L623.782623,1450.14653 C621.234464,1451.32774 619.398108,1453.76285 618.872906,1456.65761 L615,1478 L624.123696,1478 L626.333254,1465.82184 L628.487821,1478 L653.512179,1478 L655.666746,1465.82184 L657.876304,1478 L667,1478 L663.127094,1456.65761 C662.601892,1453.76285 660.765536,1451.32774 658.217377,1450.14653 Z M608.999716,1419.45495 C608.999716,1418.14849 608.382193,1417.04439 606.844797,1415.89002 L604.149291,1414 L602.88455,1415.79711 C593.158054,1412.81699 585,1416.89484 585,1426.29592 C585,1430.34195 588.958222,1436.85774 588.958222,1436.85774 L592.1248,1438.10311 C594.42887,1441.5045 598.73061,1441.58723 601.767609,1441.95696 C603.529743,1442.17142 605.199418,1441.60887 605.768349,1439.71758 C606.308935,1437.91856 607.245006,1434.38735 607.245006,1434.38735 C608.177027,1434.31035 608.625828,1433.98644 608.842467,1433.69244 C609.011864,1433.46271 609.041559,1433.16616 608.9464,1432.90079 C608.9464,1432.90079 607.122176,1428.62758 607.122176,1427.81684 C607.122176,1427.00674 607.70258,1426.18201 607.627667,1423.90572 C607.609445,1423.34381 607.523735,1422.82135 607.362436,1422.3708 C608.737859,1421.56897 608.999716,1420.12314 608.999716,1419.45495 L608.999716,1419.45495 Z" id="OCIC_Personas_Collaboration-Formal_wht_rgb"></path>
        </g>
    </g>
</svg>