<svg xmlns="http://www.w3.org/2000/svg" width="40" height="40" viewBox="0 0 40 40">
    <g fill="none" fill-rule="evenodd">
        <path fill="#003DA6" d="M40 20c0 11.046-8.954 20-20 20S0 31.046 0 20 8.954 0 20 0s20 8.954 20 20"/>
        <path fill="#FFF" d="M30.087 20.812c.502.734.754 1.585.754 2.55 0 1.354-.445 2.464-1.334 3.334-.89.87-1.99 1.304-3.304 1.304-1.391 0-2.532-.435-3.42-1.304-.89-.87-1.334-1.98-1.334-3.334 0-.617.077-1.246.232-1.884.154-.637.502-1.613 1.044-2.927L25.217 12h4.638l-1.797 7.246c.85.31 1.526.832 2.029 1.566m-12.29 0c.502.734.754 1.585.754 2.55 0 1.354-.445 2.464-1.334 3.334-.889.87-1.99 1.304-3.304 1.304-1.391 0-2.532-.435-3.42-1.304-.89-.87-1.334-1.98-1.334-3.334 0-.617.077-1.246.232-1.884.154-.637.502-1.613 1.044-2.927L12.927 12h4.638l-1.797 7.246c.85.31 1.526.832 2.03 1.566"/>
    </g>
</svg>
