<svg xmlns="http://www.w3.org/2000/svg" width="68" height="67" viewBox="0 0 68 67">
    <path fill="#FFF" fill-rule="evenodd" d="M2.883 27h4.208c.623 0 .909-.31.909-.905v-4.19c0-.31-.286-.905-.91-.905H2.884c-.286 0-.883.595-.883.905v4.19c0 .595.597.905.883.905zM55.99 15C59.254 15 62 12.237 62 9c0-3.259-2.746-6-6.01-6C52.745 3 50 5.741 50 9c0 3.237 2.746 6 5.99 6zM0 48h12L6 36 0 48zm54 2.01L60 56c6-6.01 6-5.99 6-5.99L60 44l-6 6.01zm-18 7.331v7.318L41.5 67l5.5-2.341V57.34L41.5 55 36 57.341zM32.883 6h4.208c.623 0 .909-.286.909-.883V.909C38 .597 37.714 0 37.09 0h-4.207C32.597 0 32 .597 32 .91v4.207c0 .597.597.883.883.883zm34.212 14h-4.19c-.31 0-.905.597-.905.91v4.207c0 .597.595.883.905.883h4.19c.595 0 .905-.286.905-.883v-4.208c0-.312-.31-.909-.905-.909zM11.117 58H6.909c-.312 0-.909.62-.909.905v4.19c0 .595.597.905.91.905h4.207c.597 0 .883-.31.883-.905v-4.19c0-.284-.286-.905-.883-.905zM18 51.412v5.151c0 .867.593 1.437 1.432 1.437h5.16c.84 0 1.408-.57 1.408-1.437v-2.575c-2.568-.867-4.84-2.304-6.864-3.988-.543 0-1.136.545-1.136 1.412zm33.343-13.107c-2.113 0-3.68-1.565-3.68-3.674v-6.282c0-2.11 1.567-3.697 3.68-3.697h3.384c-1.567-3.923-3.93-7.075-7.336-9.706l-5.52 5.51c0 .273-.523.522-.795.522h-.25c-.273 0-.545-.25-.545-.521v-2.608c0-.272-.25-.544-.523-.544h-1.567a.544.544 0 0 1-.522-.522v-1.837l-.545-1.315V11h-3.135l.25 1.837c0 .522-.25.794-.523.522l-1.317-.25h-2.09c-.272 0-.545-.522-.272-.794l.272-.77c-1.067.249-2.112.52-2.907 1.042l2.362 1.565v.272l3.157.522h.273l1.317 1.565c.25.272.25.544 0 .794l-.522.272h-.523l-2.112-.522h-.522l-1.59 1.837v.771c0 .272 0 .544.272.544h.523c.272 0 .522 0 .522.25l.522.794c0 .249 0 .249.273.249.25 0 .522-.25.522-.25v-.793-.25l.795-1.066c0-.249.25-.249.523-.249l.795.522h.522l1.045-1.066h.273l1.567.544c.273 0 .273 0 .273.25v2.63c0 .272 0 .522-.273.522l-2.112 1.066c-.25 0-.25.25-.25.25l-.523 1.587c0 .249-.272.249-.272.249l-1.84 1.315-.523 1.044v.544l.25 1.814c.273.272 0 .544-.25.544h-.522c-.273 0-.273 0-.273-.272l-.522-1.315c0-.25-.25-.25-.522-.25h-1.59l-.523.522V31.502c0 .249 0 .77.273.77 0 .272.25.272.25.272v.25h.795c.272 0 .522 0 .522.272v.521c0 .273 0 .522.273.522l1.044.522h.273l4.202-.522h.273l1.84 1.043v.272l3.157.522.25.272 1.567 1.043c.273 0 .273 0 .273.272v3.13l-1.318 2.903v.25l-3.157 1.859-.25.25-.522 2.358s0 .272-.273.272l-2.112 1.043c-.25 0-.25.272-.25.272v1.293c0 .25-.273.522-.523.522h-.522c-.273 0-.273 0-.273-.272l-.522-1.543v-.272-6.826c0-.25-.273-.25-.273-.521l-1.84-2.88v-.273l1.045-2.63c.273-.25 0-.522-.25-.522h-1.044c-.273 0-.523 0-.795-.25l-2.885-1.836-3.158-1.837s-.272 0-.272-.272v-.522l-1.045-2.359h-.522s-.273 0 0 .25l.522 1.315c.25.272 0 .522-.273.522l-.522-.25-.795-1.837s-.25 0-.25-.272h-.272l-.273-.25-1.295-2.63v-.521l.795-2.903c0-.25-.272-.794-.795-.794h-2.112C15.045 24.652 14 28.077 14 32.023 14 43.566 23.45 53 35.034 53 44.506 53 52.365 46.718 55 38.305h-3.657zM32 32.807s0 .193-.237.193h-.756c-.259 0-.259-.193-.518-.193l-.734-.403H29v-.211V32h1.252l1.51.404c.238 0 .238 0 .238.192v.211zM50.683 28C49.84 28 49 28.755 49 29.51v5.98c0 .755.841 1.51 1.683 1.51h6.658C58.16 37 59 36.245 59 35.49v-5.98c0-.755-.841-1.51-1.659-1.51h-6.658zM22 8H11v10h11V8z"/>
</svg>
