<?xml version="1.0" encoding="utf-8"?>
<!-- Generator: Adobe Illustrator 23.0.4, SVG Export Plug-In . SVG Version: 6.00 Build 0)  -->
<svg version="1.1" id="Layer_1" xmlns="http://www.w3.org/2000/svg" xmlns:xlink="http://www.w3.org/1999/xlink" x="0px" y="0px"
	 viewBox="0 0 100 100" style="enable-background:new 0 0 100 100;" xml:space="preserve">
<style type="text/css">
	.st0{fill:#999999;}
	.st1{fill:#000;}
</style>
<circle class="st0" cx="50.2" cy="50" r="38"/>
<g>
	<path class="st0" d="M88.3,50.5c0-21.3-17.3-38.5-38.5-38.5S11.3,29.2,11.3,50.5c0,19.2,14.1,35.2,32.5,38.1V61.6H34V50.5h9.8V42
		c0-9.7,5.8-15,14.6-15c4.2,0,8.6,0.8,8.6,0.8v9.5h-4.9c-4.8,0-6.3,3-6.3,6v7.2h10.7l-1.7,11.1h-9v26.9
		C74.3,85.6,88.3,69.7,88.3,50.5z"/>
	<path class="st1" d="M64.8,61.6l1.7-11.1H55.8v-7.2c0-3,1.5-6,6.3-6H67v-9.5c0,0-4.4-0.8-8.6-0.8c-8.8,0-14.6,5.3-14.6,15v8.5H34
		v11.1h9.8v26.9c2,0.3,4,0.5,6,0.5c2,0,4.1-0.2,6-0.5V61.6H64.8z"/>
</g>
</svg>
