<svg version="1.1" id="Layer_1" xmlns="http://www.w3.org/2000/svg" xmlns:xlink="http://www.w3.org/1999/xlink" x="0px" y="0px"
	 viewBox="0 0 100 100" style="enable-background:new 0 0 100 100;" xml:space="preserve">
<style type="text/css">
	.st0{fill:#999999;}
	.st1{fill:#000;}
</style>
<circle class="st0" cx="50.2" cy="50" r="38"/>
<g id="LinkedIn_2_">
	<rect x="31.4" y="42.6" class="st1" width="7.7" height="25.2"/>
	<path class="st1" d="M60.2,42.3c-4.4,0-7.2,2.4-7.7,4.2v-4h-8.7c0.1,2.1,0,25.2,0,25.2h8.7V54.1c0-0.8,0-1.6,0.2-2.1
		c0.6-1.6,1.8-3.1,4.2-3.1c3,0,4.4,2.3,4.4,5.8v13.1H70V53.7C69.9,45.9,65.6,42.3,60.2,42.3z"/>
	<path class="st1" d="M35.1,30.6c-2.9,0-4.7,1.9-4.7,4.4c0,2.4,1.8,4.3,4.6,4.3h0.1c2.9,0,4.7-1.9,4.7-4.4
		C39.7,32.5,38,30.6,35.1,30.6z"/>
</g>
</svg>
