<svg xmlns="http://www.w3.org/2000/svg" xmlns:xlink="http://www.w3.org/1999/xlink" width="13" height="25" viewBox="0 0 13 25">
    <defs>
        <path id="a" d="M0 0h25v13H0z"/>
    </defs>
    <g fill="none" fill-rule="evenodd" transform="rotate(-90 12.5 12.5)">
        <mask id="b" fill="#fff">
            <use xlink:href="#a"/>
        </mask>
        <path fill="#E95623" d="M12.554 12.998a.843.843 0 0 0 .526-.232L24.69 1.638a.969.969 0 0 0 .107-1.306.834.834 0 0 0-1.268-.075L12.5 10.825 1.472.257A.833.833 0 0 0 .24.287a.971.971 0 0 0 .07 1.351L11.92 12.766a.84.84 0 0 0 .634.232" mask="url(#b)"/>
    </g>
</svg>
