<?xml version="1.0" encoding="utf-8"?>
<!-- Generator: Adobe Illustrator 23.0.4, SVG Export Plug-In . SVG Version: 6.00 Build 0)  -->
<svg version="1.1" id="Layer_1" xmlns="http://www.w3.org/2000/svg" xmlns:xlink="http://www.w3.org/1999/xlink" x="0px" y="0px"
	 viewBox="0 0 100 100" style="enable-background:new 0 0 100 100;" xml:space="preserve">
<style type="text/css">
	.st0{fill:#999999;}
	.st1{fill:#000;}
</style>
<circle class="st0" cx="51.2" cy="50" r="38"/>
<path id="Twitter_2_" class="st1" d="M70.9,32.7c-1.7,1-3.5,1.8-5.6,2.2c-1.6-1.7-3.9-2.8-6.4-2.8c-4.8,0-8.8,4-8.8,9
	c0,0.7,0.1,1.4,0.2,2.1c-7.3-0.3-13.7-4-18-9.3c-0.8,1.4-1.1,2.8-1.1,4.6c0,3.1,1.6,5.8,3.9,7.5c-1.5,0-2.7-0.5-4-1.1v0.1
	c0,4.3,3,8,7.1,8.8c-0.7,0.2-1.5,0.3-2.3,0.3c-0.6,0-1.1,0-1.6-0.1c1.1,3.5,4.3,6.2,8.2,6.3c-3,2.4-6.7,3.9-10.8,3.9
	c-0.7,0-1.4,0-2.1-0.1c3.9,2.5,8.4,4,13.4,4c16.1,0,25-13.7,25-25.5c0-0.3,0-0.8,0-1.1c1.7-1.3,3.2-2.8,4.3-4.7
	c-1.6,0.7-3.3,1.3-5,1.4C68.9,36.5,70.2,34.7,70.9,32.7z"/>
</svg>
