<svg xmlns="http://www.w3.org/2000/svg" width="24" height="30" viewBox="0 0 24 30">
    <g fill="#F0AB04" fill-rule="nonzero">
        <path d="M11.983 30C5.266 30 0 26.689 0 22.459v-.197-.065c.236-4.951 1.215-8 3.68-11.246.573-.754 1.518-1.836 2.734-2.623l1.89 2.721c-.608.394-1.283 1.05-1.89 1.836-1.79 2.36-2.802 4.558-3.005 9.41v.164c0 2 3.545 4.262 8.608 4.262 5.063 0 8.607-2.23 8.607-4.262v-.164c-.202-4.688-1.181-6.852-2.902-9.213-.743-1.016-1.587-1.803-2.296-2.197L17.046 8c1.52.82 2.735 2.197 3.443 3.18 2.363 3.279 3.275 6.164 3.511 10.984v.262C23.966 26.69 18.7 30 11.983 30z"/>
        <path d="M11.5 14C7.925 14 5 10.859 5 7s2.925-7 6.5-7S18 3.141 18 7s-2.925 7-6.5 7zm0-10.585C9.713 3.415 8.25 5.02 8.25 7s1.463 3.585 3.25 3.585S14.75 8.98 14.75 7c-.033-1.98-1.463-3.585-3.25-3.585z"/>
    </g>
</svg>
