<svg xmlns="http://www.w3.org/2000/svg" width="28" height="31" viewBox="0 0 28 31">
    <g fill="#F0AB04" fill-rule="nonzero">
        <path d="M18 10c-2.752 0-5-2.24-5-4.983C13 2.274 15.248 0 18 0s5 2.24 5 4.983C23 7.726 20.752 10 18 10zm0-7.157a2.16 2.16 0 0 0-2.148 2.14c0 1.17.974 2.14 2.148 2.14a2.16 2.16 0 0 0 2.148-2.14A2.16 2.16 0 0 0 18 2.843zM6.5 22A6.493 6.493 0 0 1 0 15.5C0 11.905 2.905 9 6.5 9s6.5 2.905 6.5 6.5S10.095 22 6.5 22zm0-9.877a3.41 3.41 0 0 0-3.413 3.413A3.41 3.41 0 0 0 6.5 18.95a3.41 3.41 0 0 0 3.413-3.414A3.41 3.41 0 0 0 6.5 12.123zM20.5 31c-4.127 0-7.5-3.365-7.5-7.482S16.337 16 20.5 16s7.5 3.365 7.5 7.518S24.627 31 20.5 31zm0-11.957c-2.476 0-4.45 2.005-4.45 4.475 0 2.47 2.01 4.439 4.45 4.439 2.44 0 4.45-2.005 4.45-4.44 0-2.433-2.01-4.474-4.45-4.474z"/>
        <path d="M9.777 10.428l4.414-4.063 2.032 2.207-4.414 4.063zM9.585 19.523l1.523-2.585 4.307 2.539-1.523 2.585z"/>
    </g>
</svg>
