<svg xmlns="http://www.w3.org/2000/svg" width="46" height="46" viewBox="0 0 46 46">
    <g fill="none" fill-rule="evenodd" transform="translate(1 1)">
        <path fill="#9D9D9C" fill-rule="nonzero" d="M22.15 37.119c.25 0 .45-.1.65-.25l13.95-12.55c.45-.35.5-1.05.15-1.45-.35-.45-1.05-.5-1.45-.15l-.05.05-13.25 11.95L8.9 22.769c-.4-.4-1.1-.4-1.5.05-.4.4-.4 1.1.05 1.5l.05.05 13.95 12.55c.1.15.4.25.7.2z"/>
        <path fill="#9D9D9C" fill-rule="nonzero" d="M22.15 24.969c.25 0 .45-.1.65-.25l13.95-12.55c.45-.35.5-1.05.15-1.45-.35-.45-1.05-.5-1.45-.15l-.05.05-13.25 11.95L8.9 10.619c-.4-.4-1.1-.4-1.5.05-.4.45-.4 1.1.05 1.5l.05.05 13.95 12.55c.1.1.4.2.7.2z"/>
        <circle cx="22" cy="21.75" r="21.6" stroke="#9D9D9C" stroke-width="2.126"/>
    </g>
</svg>
