<?xml version="1.0" encoding="UTF-8"?>
<svg width="124px" height="70px" viewBox="0 0 124 70" version="1.1" xmlns="http://www.w3.org/2000/svg" xmlns:xlink="http://www.w3.org/1999/xlink">
    <!-- Generator: Sketch 55 (78076) - https://sketchapp.com -->
    <title>Fill 1</title>
    <desc>Created with Sketch.</desc>
    <g id="Microsite" stroke="none" stroke-width="1" fill="none" fill-rule="evenodd">
        <g id="Edge-to-Core" transform="translate(-868.000000, -1420.000000)" fill="#FFFFFF">
            <path d="M967.727,1445.37111 C964.886625,1436.30157 956.444292,1429.72222 946.46875,1429.72222 C943.898979,1429.72222 941.432542,1430.16426 939.135313,1430.96796 C934.594458,1424.34454 926.991708,1420 918.375,1420 C906.460021,1420 896.483833,1428.30602 893.864979,1439.46194 C893.639583,1439.45546 893.414833,1439.44444 893.1875,1439.44444 C879.276896,1439.44444 868,1450.76176 868,1464.72222 C868,1478.68269 879.276896,1490 893.1875,1490 L969.71875,1490 C982.024458,1490 992,1479.9887 992,1467.63889 C992,1455.28907 982.024458,1445.27778 969.71875,1445.27778 C969.047083,1445.27778 968.383812,1445.31278 967.727,1445.37111 Z" id="Fill-1"></path>
        </g>
    </g>
</svg>