<svg xmlns="http://www.w3.org/2000/svg" width="71" height="54" viewBox="0 0 71 54">
    <defs>
        <linearGradient id="a" x1="100%" x2="4.791%" y1="54.581%" y2="54.581%">
            <stop offset="0%" stop-color="#4998C5"/>
            <stop offset="100%" stop-color="#71BBBB"/>
        </linearGradient>
    </defs>
    <path fill="url(#a)" fill-rule="nonzero" d="M28.875 82h13.313L35.53 68.5 28.875 82zm0-27l6.656 6.75L42.188 55l-6.657-6.75L28.875 55zm2.219-18H20v11.25h11.094V37zm51.135 2.25a2.21 2.21 0 0 1-1.838-.989 2.277 2.277 0 0 1-.222-2.097c.455-1.155.847-2.367.847-3.102 0-2.795-2.235-5.062-4.993-5.062-2.757 0-4.992 2.267-4.992 5.063 0 .75.392 1.946.847 3.1.274.694.19 1.48-.222 2.098a2.21 2.21 0 0 1-1.838.989h-8.771v9.458c0 .746.365 1.444.975 1.863.61.418 1.385.503 2.068.225 1.14-.461 2.334-.858 3.058-.858 2.758 0 4.993 2.266 4.993 5.062 0 2.796-2.235 5.063-4.993 5.063-.74 0-1.919-.398-3.058-.86a2.193 2.193 0 0 0-2.068.226 2.259 2.259 0 0 0-.975 1.863v9.458h8.771c.737 0 1.425.37 1.838.989.412.618.496 1.404.222 2.097-.455 1.155-.847 2.367-.847 3.102 0 2.795 2.235 5.062 4.992 5.062 2.758 0 4.993-2.267 4.993-5.063 0-.75-.392-1.946-.847-3.1a2.277 2.277 0 0 1 .222-2.098 2.21 2.21 0 0 1 1.838-.989H91v-31.5h-8.771zm-33.385-3.375c0-3.728-2.98-6.75-6.657-6.75-3.676 0-6.656 3.022-6.656 6.75s2.98 6.75 6.657 6.75c3.676 0 6.656-3.022 6.656-6.75zm-5.547 38.25H54.39v-11.25H43.297v11.25zm2.219-26.835v8.032l5.547 2.415 5.546-2.415V47.29l-5.547-2.415-5.546 2.415zM31.094 66.25c0-3.107-2.484-5.625-5.547-5.625-3.064 0-5.547 2.518-5.547 5.625s2.483 5.625 5.547 5.625c3.063 0 5.547-2.518 5.547-5.625z" transform="translate(-20 -28)"/>
</svg>
