<?xml version="1.0" encoding="UTF-8"?>
<svg width="21px" height="21px" viewBox="0 0 21 21" version="1.1" xmlns="http://www.w3.org/2000/svg" xmlns:xlink="http://www.w3.org/1999/xlink">
    <!-- Generator: Sketch 54.1 (76490) - https://sketchapp.com -->
    <title>Download</title>
    <desc>Created with Sketch.</desc>
    <defs>
        <polygon id="path-1" points="0 0.034275 20.9998833 0.034275 20.9998833 5 0 5"></polygon>
    </defs>
    <g id="Microsite" stroke="none" stroke-width="1" fill="none" fill-rule="evenodd">
        <g id="Manufacturing-Change" transform="translate(-127.000000, -1976.000000)">
            <g id="References" transform="translate(127.000000, 1534.000000)">
                <g id="Download-Centre-" transform="translate(0.000000, 167.000000)">
                    <g id="Download-symbol---grey" transform="translate(0.000000, 275.000000)">
                        <g id="Group-6-Copy">
                            <path d="M10.0009097,14.7973246 C10.2764078,15.0675585 10.7234158,15.0675585 10.9989138,14.7973246 L17.7932,8.13286307 C18.0689333,7.86262918 18.0689333,7.42416259 17.7932,7.1539287 C17.5174666,6.88369481 17.0709292,6.88369481 16.7951958,7.1539287 L11.2057139,12.6366073 L11.2057139,0.692315681 C11.2057139,0.309926653 10.8897498,0 10.4999118,0 C10.1100738,0 9.79410969,0.309926653 9.79410969,0.692315681 L9.79410969,12.6366073 L4.20462771,7.1539287 C3.92912963,6.88369481 3.48212164,6.88369481 3.20662356,7.1539287 C2.93112548,7.42416259 2.93112548,7.86262918 3.20662356,8.13286307 L10.0009097,14.7973246 Z" id="Fill-1" fill="#4A4A4A"></path>
                            <g id="Group-5" transform="translate(0.000000, 16.000000)">
                                <mask id="mask-2" fill="white">
                                    <use xlink:href="#path-1"></use>
                                </mask>
                                <g id="Clip-4"></g>
                                <path d="M0.699883333,5.000025 L20.2998833,5.000025 C20.68675,5.000025 20.9998833,4.664275 20.9998833,4.250025 L20.9998833,0.784275 C20.9998833,0.369775 20.68675,0.034275 20.2998833,0.034275 C19.91325,0.034275 19.5998833,0.369775 19.5998833,0.784275 L19.5998833,3.500025 L1.39988333,3.500025 L1.39988333,0.784275 C1.39988333,0.369775 1.08651667,0.034275 0.699883333,0.034275 C0.313483333,0.034275 -0.000116666667,0.369775 -0.000116666667,0.784275 L-0.000116666667,4.250025 C-0.000116666667,4.664275 0.31325,5.000025 0.699883333,5.000025" id="Fill-3" fill="#4A4A4A" mask="url(#mask-2)"></path>
                            </g>
                        </g>
                    </g>
                </g>
            </g>
        </g>
    </g>
</svg>