<svg xmlns="http://www.w3.org/2000/svg" width="45" height="65" viewBox="0 0 45 65">
    <path fill="#FFF" fill-rule="evenodd" d="M37.986 24.364v-8.618C37.986 7.106 30.993 0 22.489 0 13.986 0 6.993 7.105 6.993 15.746v8.618H0v30.965l22.49 9.65 22.488-9.65V24.364h-6.992zm-12.993 18.53v5.856c0 1.491-1.015 2.522-2.504 2.522s-2.503-1.03-2.503-2.522v-5.855c-1.49-.746-2.504-2.522-2.504-4.299 0-2.807 2.245-5.087 5.007-5.087 2.741 0 4.986 2.28 4.986 5.087 0 1.777-.993 3.553-2.482 4.299zm6-18.53H13.986v-8.618c0-4.825 3.755-8.64 8.503-8.64s8.504 3.815 8.504 8.64v8.618z"/>
</svg>
