<svg xmlns="http://www.w3.org/2000/svg" width="61" height="67" viewBox="0 0 61 67">
    <path fill="#FFF" fill-rule="evenodd" d="M60.208 11.506l-1.832-1.04c-.542-.52-1.063-.249-1.311.271L53.92 16.23l-7.849 13.337V3.142c0-1.83-1.289-3.142-3.12-3.142H3.143C1.312 0 0 1.311 0 3.142v60.693c0 1.831 1.312 3.142 3.144 3.142H42.95c1.832 0 3.121-1.31 3.121-3.142v-21.7l-3.12 5.493v12.026H3.143V6.284H42.95V35.06l-6.808 12.048-1.063 1.56c-.52.52-.769 1.582-.769 2.35l-.271 2.08v.271c-.272.25-.272.792.271 1.04.249.249.52 0 .77-.248l.27-.272 1.561-1.31c.792-.52 1.312-1.312 1.832-1.832l.792-1.56 17.777-30.855 3.144-5.515c.52-.52.272-1.04-.249-1.311zM21.464 61.733h3.144c.792 0 1.583.791 1.583 1.582 0 .769-.791 1.56-1.583 1.56h-3.144c-.769 0-1.56-.791-1.56-1.56 0-.79.791-1.582 1.56-1.582zM8.12 37.433c1.312 2.351 4.704 3.39 7.08 1.831 2.351 1.56 4.952 2.6 7.847 2.6 2.081 0 4.185-.52 5.768-1.311-.543-.52-1.063-1.04-1.334-1.831-1.561.79-2.873 1.062-4.434 1.062-2.352 0-4.455-.791-6.287-1.83 1.312-1.832 1.56-3.934.52-5.765-1.583-2.622-4.705-3.39-7.328-1.831a5.076 5.076 0 0 0-1.832 7.075zm22.776 1.831c2.352 1.56 5.767.52 7.057-1.83 1.583-2.623.542-5.765-1.81-7.076v-1.56c0-4.453-2.375-8.657-5.767-11.008-.272.791-.52 1.582-.792 2.102 2.624 2.08 4.456 5.222 4.456 8.906v.769c-2.104-.249-3.936.791-5.225 2.622-1.334 2.35-.543 5.764 2.08 7.075zM9.952 28.007c.769-.271 1.56-.542 2.103-.542.52-3.64 2.873-7.053 6.265-8.635.792 1.853 2.624 3.142 4.727 3.142 2.873 0 5.225-2.351 5.225-5.222 0-2.893-2.352-5.244-5.225-5.244A5.25 5.25 0 0 0 17.8 16.75c-4.456 2.08-7.6 6.284-7.848 11.257z"/>
</svg>
