<svg xmlns="http://www.w3.org/2000/svg" width="63" height="72" viewBox="0 0 63 72">
    <path fill="#58595B" fill-rule="evenodd" d="M8.372 19.968L3.339 17.15C2.23 16.59.834 16.883.28 18c-.554 1.117-.289 2.526.819 3.085l5.033 2.818c.29.291.554.291 1.108.291.843 0 1.397-.291 1.95-1.141.555-1.118.29-2.235-.818-3.085zm8.886-5.903c.554 0 .843 0 1.108-.292 1.132-.558 1.397-1.967.843-3.085l-2.794-5.077c-.553-1.117-1.95-1.384-3.034-.826-1.108.56-1.397 1.968-.843 3.085l2.77 5.077c.554.56 1.107 1.118 1.95 1.118zm13.944-3.668c1.108 0 2.216-1.118 2.216-2.235V2.259C33.418 1.117 32.31 0 31.202 0s-2.24 1.117-2.24 2.26v5.902c0 1.117 1.132 2.235 2.24 2.235zm-8.357 53.975c0 2.527 1.927 4.494 4.167 4.786 0 1.676 1.108 2.818 2.793 2.818H32.6c1.397 0 2.793-1.142 2.793-2.818 2.216-.292 4.167-2.26 4.167-4.786V58.47H22.845v5.902zm8.357-49.749c-9.2 0-16.737 7.604-16.737 16.883 0 8.43 8.38 12.073 8.38 19.676v3.911H39.56v-3.91c0-7.604 8.356-11.248 8.356-19.677 0-9.28-7.513-16.883-16.713-16.883zM62.148 18c-.554-1.117-1.95-1.409-3.058-.85l-5.034 2.818c-1.107.85-1.396 1.967-.818 3.085.53.85 1.107 1.141 1.95 1.141.554 0 .82 0 1.108-.291l5.01-2.818c1.107-.559 1.396-1.968.842-3.085zm-13.1-13.215c-1.133-.558-2.505-.291-3.083.826l-2.77 5.077c-.843 1.118-.289 2.527.843 3.085.265.292.554.292 1.108.292s1.397-.559 1.95-1.118L49.89 7.87c.554-1.117.265-2.526-.843-3.085z"/>
</svg>
