<svg xmlns="http://www.w3.org/2000/svg" width="38" height="33"><g fill="none"><path fill="#0077B5" d="M30.556 0H2.444C1.1 0 0 1.039 0 2.383v28.234C0 31.96 1.1 33 2.444 33h28.112C31.9 33 33 31.961 33 30.617V2.383C33 1.04 31.9 0 30.556 0z"/><path fill="#FFF" d="M4.889 12.344h4.889v15.767h-4.89V12.344zm2.444-7.822a2.804 2.804 0 0 1 2.811 2.811 2.804 2.804 0 0 1-2.81 2.811 2.804 2.804 0 0 1-2.812-2.81 2.804 2.804 0 0 1 2.811-2.812zm5.5 7.822h4.706v2.14h.061c.672-1.223 2.261-2.567 4.644-2.567 4.95 0 5.867 3.239 5.867 7.516v8.678h-4.889v-7.639c0-1.833-.06-4.155-2.566-4.155-2.567 0-2.934 2.016-2.934 4.033v7.761h-4.889V12.344z"/><path d="M34.514 27.4h.4V29h.286v-1.6h.4v-.267h-1.086zm2.629-.267l-.457 1.4-.457-1.4h-.343V29h.228v-1.4l.515 1.4h.171l.457-1.4V29h.229v-1.867z" fill="#000"/></g></svg>