<svg xmlns="http://www.w3.org/2000/svg" width="49" height="69" viewBox="0 0 49 69">
    <defs>
        <linearGradient id="a" x1="100%" x2="4.791%" y1="54.581%" y2="54.581%">
            <stop offset="0%" stop-color="#4998C5"/>
            <stop offset="100%" stop-color="#71BBBB"/>
        </linearGradient>
    </defs>
    <path fill="url(#a)" fill-rule="evenodd" d="M54.12 101.12L74 81.6H61.217V68h-22.37v13.599H25l19.88 19.522c2.552 2.505 6.688 2.505 9.24 0zM67.5 115a2.5 2.5 0 1 1 0-5 2.5 2.5 0 0 1 0 5zm-6 0a2.5 2.5 0 1 1 0-5 2.5 2.5 0 0 1 0 5zm11.435-7h-46.87c-.586 0-1.065.5-1.065 1.111v7.778c0 .611.48 1.111 1.065 1.111h46.87c.586 0 1.065-.5 1.065-1.111v-7.778c0-.611-.48-1.111-1.065-1.111zM38 54h23v-5H38v5zm0 10h23v-7H38v7z" transform="translate(-25 -49)"/>
</svg>
