<svg xmlns="http://www.w3.org/2000/svg" width="174" height="64" viewBox="0 0 174 64">
    <g fill="none" fill-rule="evenodd">
        <path fill="#241F20" d="M53.738 15.07c-4.106 0-7.646 1.49-10.55 4.398-2.902 2.908-4.389 6.454-4.389 10.567 0 4.114 1.487 7.66 4.39 10.568C46.092 43.51 49.632 45 53.739 45c4.106 0 7.646-1.49 10.549-4.397 2.903-2.908 4.39-6.454 4.39-10.568 0-4.113-1.487-7.66-4.39-10.567-2.974-2.979-6.443-4.397-10.55-4.397zm6.019 20.923c-1.629 1.631-3.682 2.482-6.019 2.482-2.336 0-4.39-.85-6.018-2.482-1.628-1.631-2.478-3.688-2.478-6.028 0-2.34.85-4.398 2.478-6.029 1.629-1.631 3.682-2.482 6.018-2.482 2.337 0 4.39.851 6.019 2.482 1.628 1.631 2.478 3.688 2.478 6.029 0 2.34-.85 4.397-2.478 6.028zm24.71-20.922c-4.107 0-7.647 1.49-10.55 4.397-2.903 2.908-4.39 6.454-4.39 10.567V44.93H75.9V30.035c0-2.34.85-4.397 2.478-6.028 1.628-1.631 3.681-2.482 6.018-2.482V15.07h.07zm-61.528 6.383c2.337 0 4.39.851 6.019 2.482 1.274 1.277 1.982 2.695 2.336 4.326h6.443c-.354-3.404-1.77-6.312-4.248-8.794-2.903-2.908-6.443-4.397-10.55-4.397-4.106 0-7.646 1.49-10.55 4.397C9.488 22.376 8 25.922 8 30.035c0 4.114 1.487 7.66 4.39 10.568C15.293 43.51 18.833 45 22.94 45c4.106 0 7.646-1.49 10.549-4.397 2.478-2.482 3.894-5.461 4.248-8.794h-6.443c-.283 1.63-1.062 3.05-2.336 4.326-1.629 1.631-3.682 2.482-6.019 2.482-2.336 0-4.39-.851-6.018-2.482-1.628-1.631-2.478-3.688-2.478-6.029 0-2.34.85-4.397 2.478-6.028 1.7-1.773 3.682-2.624 6.018-2.624zM113 29.964c0-4.113-1.487-7.659-4.39-10.567C105.707 16.49 102.167 15 98.06 15c-4.106 0-7.646 1.49-10.549 4.397-2.903 2.908-4.39 6.454-4.39 10.568 0 4.113 1.487 7.66 4.39 10.567 2.903 2.908 6.443 4.397 10.55 4.397 4.106 0 7.646-1.49 10.55-4.397 1.344-1.348 2.336-2.766 3.044-4.397h-7.718c-1.628 1.56-3.61 2.34-5.876 2.34-2.337 0-4.39-.85-6.019-2.482-.85-.851-1.486-1.773-1.911-2.837h22.444c.283-.993.425-2.057.425-3.191zm-22.798-3.191c.424-1.064 1.062-1.986 1.911-2.837 1.629-1.631 3.682-2.482 6.018-2.482 2.337 0 4.39.851 6.019 2.482.85.851 1.487 1.773 1.911 2.837h-15.86z"/>
        <path fill="#000" d="M133.683 14.839c-3.161 0-5.971.863-8.36 2.663l-1.475 1.08V8H119v36.928h4.848V29.883c0-2.807.983-5.183 2.88-7.126 1.897-1.944 4.215-2.952 6.955-2.952s5.058 1.008 6.955 2.952c1.897 1.943 2.88 4.39 2.88 7.126v15.045h4.848V29.883c0-4.175-1.405-7.702-4.285-10.653-2.88-2.952-6.323-4.391-10.398-4.391m22.833 4.463c-2.88 2.95-4.286 6.478-4.286 10.653V45h4.848V29.955c0-2.807.983-5.183 2.88-7.126 1.686-1.728 3.724-2.736 6.042-2.88v-4.967c-3.653.144-6.744 1.584-9.484 4.32"/>
    </g>
</svg>
