<svg xmlns="http://www.w3.org/2000/svg" xmlns:xlink="http://www.w3.org/1999/xlink" width="105" height="12" viewBox="0 0 105 12">
    <defs>
        <path id="a" d="M0 0h105v12H0z"/>
    </defs>
    <g fill="none" fill-rule="evenodd">
        <mask id="b" fill="#fff">
            <use xlink:href="#a"/>
        </mask>
        <path fill="#FEFEFE" d="M103.515 1.271c.1 0 .206-.01.266-.097.044-.032.05-.076.05-.124 0-.084-.052-.15-.125-.185-.086-.03-.15-.03-.306-.03h-.086v.436h.201M103.4.594c.22 0 .32.01.434.038a.42.42 0 0 1 .312.42c0 .019-.008.068-.018.122a.372.372 0 0 1-.202.261c-.02.01-.03.02-.063.035l.377.62h-.367l-.337-.577h-.222v.577h-.328V.594h.414m.141 2.125c.808 0 1.459-.591 1.459-1.33 0-.738-.65-1.342-1.459-1.342-.817 0-1.468.604-1.468 1.342 0 .739.65 1.33 1.468 1.33m-1.159-1.335c0-.58.513-1.052 1.159-1.052.643 0 1.151.472 1.151 1.052 0 .576-.508 1.047-1.151 1.047-.646 0-1.159-.47-1.159-1.047M92.21 9.908c-1.932 0-3.56-1.181-4.063-2.798h10.716l1.477-2.095H88.146c.5-1.622 2.131-2.8 4.063-2.8h7.358l1.47-2.1h-8.995c-3.598 0-6.517 2.66-6.517 5.947 0 3.283 2.919 5.938 6.517 5.938h7.738l1.47-2.092h-9.04M61.544 12h7.738l1.465-2.092h-9.032c-2.34 0-4.227-1.725-4.227-3.846 0-2.13 1.886-3.847 4.227-3.847h7.351l1.483-2.1h-9.005c-3.604 0-6.532 2.66-6.532 5.947 0 3.283 2.928 5.938 6.532 5.938M13.93 9.908H6.69c-2.33 0-4.218-1.725-4.218-3.846 0-2.13 1.889-3.847 4.218-3.847h7.24c2.337 0 4.223 1.717 4.223 3.847 0 2.12-1.886 3.846-4.223 3.846M6.523 12h7.58c3.606 0 6.51-2.655 6.51-5.938 0-3.287-2.904-5.947-6.51-5.947h-7.58C2.922.115 0 2.775 0 6.062 0 9.345 2.922 12 6.523 12m26.398-3.848c2.44 0 4.404-1.8 4.404-4.02 0-2.22-1.963-4.017-4.404-4.017H21.95V12h2.507V2.215h8.297c1.164 0 2.108.857 2.108 1.917 0 1.059-.944 1.93-2.108 1.93l-7.07-.005L33.171 12h3.638l-5.03-3.848h1.14m41.481 1.75V.115H71.89v10.749c0 .292.136.58.371.787.24.226.57.349.914.349h11.424l1.488-2.098H74.401m-30.69-2.093H50.4l-3.534-5.198L40.378 12h-2.963L45.313.733C45.65.277 46.229 0 46.862 0c.618 0 1.187.267 1.524.712L56.308 12h-2.955L51.96 9.902h-6.773l-1.476-2.093" mask="url(#b)"/>
    </g>
</svg>
