<svg xmlns="http://www.w3.org/2000/svg" xmlns:xlink="http://www.w3.org/1999/xlink" width="96" height="14" viewBox="0 0 96 14">
    <defs>
        <path id="a" d="M0 0h96v14H0z"/>
    </defs>
    <g fill="none" fill-rule="evenodd">
        <mask id="b" fill="#fff">
            <use xlink:href="#a"/>
        </mask>
        <path fill="#FFF" d="M85.06 13.508v-2.666c1.632.478 3.085.717 4.363.717 1.748 0 2.621-.426 2.621-1.277 0-.317-.126-.583-.372-.8-.26-.228-.93-.547-2.01-.953-1.917-.723-3.174-1.348-3.763-1.868-.755-.673-1.135-1.533-1.135-2.583 0-1.327.552-2.34 1.653-3.04C87.506.347 88.925 0 90.675 0c.985 0 2.258.146 3.823.435l.36.057v2.563c-1.358-.5-2.622-.75-3.792-.75-1.634 0-2.448.417-2.448 1.249 0 .312.162.564.493.762.262.152 1.024.49 2.282 1.01 1.77.73 2.957 1.366 3.554 1.906.702.643 1.053 1.471 1.053 2.49 0 1.46-.684 2.575-2.056 3.343-1.121.623-2.57.935-4.347.935-1.503 0-3.015-.164-4.537-.492zm-15.528.218V.236h4.732l5.022 9.03V.237h2.877v13.49h-4.6l-5.154-9.153v9.153h-2.877zm-13.332 0V.236h10.474v2.439h-6.538v3.047h5.69v2.225h-5.69v3.203h6.707v2.576H56.2zm-21.519 0V.236h5.295l3.679 8.62 3.77-8.62h5.03v13.49h-3.872V4.175l-4.289 9.687h-2.53l-4.206-9.687v9.551h-2.877zm-13.31 0V.236h10.474v2.439h-6.54v3.047H31v2.225h-5.694v3.203h6.708v2.576H21.371zm-7.83 0h4.083V.236h-4.083v13.49zM.296 13.508v-2.666c1.644.478 3.097.717 4.364.717 1.745 0 2.617-.426 2.617-1.277 0-.317-.127-.583-.38-.8-.26-.228-.929-.547-2-.953C2.973 7.798 1.72 7.176 1.135 6.66.377 5.983 0 5.124 0 4.089c0-1.335.552-2.35 1.653-3.05C2.74.346 4.16 0 5.908 0c.965 0 2.36.165 4.185.492v2.563c-1.358-.5-2.618-.75-3.783-.75-1.64 0-2.46.417-2.46 1.249 0 .312.166.564.495.762.276.16 1.035.494 2.272 1.01 1.784.73 2.972 1.366 3.564 1.906.704.643 1.055 1.471 1.055 2.49 0 1.46-.688 2.575-2.067 3.343-1.115.623-2.563.935-4.339.935-1.5 0-3.013-.164-4.534-.492z" mask="url(#b)"/>
    </g>
</svg>
